<svg width="20" height="21" viewBox="0 0 20 21" fill="none" xmlns="http://www.w3.org/2000/svg">
<path d="M10 0.0166016C8.02219 0.0166016 6.08879 0.603091 4.4443 1.70191C2.79981 2.80072 1.51809 4.36251 0.761209 6.18977C0.00433284 8.01703 -0.193701 10.0277 0.192152 11.9675C0.578004 13.9073 1.53041 15.6891 2.92894 17.0877C4.32746 18.4862 6.10929 19.4386 8.0491 19.8245C9.98891 20.2103 11.9996 20.0123 13.8268 19.2554C15.6541 18.4985 17.2159 17.2168 18.3147 15.5723C19.4135 13.9278 20 11.9944 20 10.0166C20 8.70338 19.7413 7.40302 19.2388 6.18977C18.7363 4.97651 17.9997 3.87412 17.0711 2.94553C16.1425 2.01695 15.0401 1.28035 13.8268 0.777806C12.6136 0.275259 11.3132 0.0166016 10 0.0166016ZM10 18.0166C8.41775 18.0166 6.87104 17.5474 5.55544 16.6684C4.23985 15.7893 3.21447 14.5399 2.60897 13.0781C2.00347 11.6163 1.84504 10.0077 2.15372 8.45588C2.4624 6.90403 3.22433 5.47857 4.34315 4.35975C5.46197 3.24093 6.88743 2.479 8.43928 2.17032C9.99113 1.86164 11.5997 2.02006 13.0615 2.62557C14.5233 3.23107 15.7727 4.25645 16.6518 5.57204C17.5308 6.88763 18 8.43435 18 10.0166C18 12.1383 17.1572 14.1732 15.6569 15.6735C14.1566 17.1737 12.1217 18.0166 10 18.0166ZM11 9.9466V5.0166C11 4.75139 10.8946 4.49703 10.7071 4.30949C10.5196 4.12196 10.2652 4.0166 10 4.0166C9.73479 4.0166 9.48043 4.12196 9.2929 4.30949C9.10536 4.49703 9 4.75139 9 5.0166V10.0166C9 10.0166 9 10.0866 9 10.1266C8.9754 10.3299 9.01379 10.5358 9.11 10.7166L10.61 13.3166C10.7426 13.5473 10.9615 13.7159 11.2184 13.7853C11.4753 13.8547 11.7493 13.8192 11.98 13.6866C12.2107 13.554 12.3794 13.3352 12.4487 13.0782C12.5181 12.8213 12.4826 12.5473 12.35 12.3166L11 9.9466Z" fill="#e0e0e0"/>
</svg>
