<svg width="22" height="21" viewBox="0 0 22 21" fill="none" xmlns="http://www.w3.org/2000/svg">
<g clip-path="url(#clip0_410_2120)">
<path d="M1.54102 1.04102L4.16851 1.04102L4.69401 3.14301M4.69401 3.14301L6.79601 11.551M4.69401 3.14301H20.459L18.357 11.551H6.79601M6.79601 11.551H6.27051C5.39983 11.551 4.69401 12.2568 4.69401 13.1275C4.69401 13.9982 5.39983 14.704 6.27051 14.704H18.357M18.357 18.908C18.357 19.4884 17.8864 19.959 17.306 19.959C16.7255 19.959 16.255 19.4884 16.255 18.908C16.255 18.3275 16.7255 17.857 17.306 17.857C17.8864 17.857 18.357 18.3275 18.357 18.908ZM7.847 18.908C7.847 19.4884 7.37646 19.959 6.79601 19.959C6.21556 19.959 5.74501 19.4884 5.74501 18.908C5.74501 18.3275 6.21556 17.857 6.79601 17.857C7.37646 17.857 7.847 18.3275 7.847 18.908Z" stroke="#340C10" stroke-width="1.8" stroke-linecap="round" stroke-linejoin="round"/>
</g>
<defs>
<clipPath id="clip0_410_2120">
<rect width="22" height="21" fill="white"/>
</clipPath>
</defs>
</svg>
