<svg width="17" height="19" viewBox="0 0 17 19" fill="none" xmlns="http://www.w3.org/2000/svg">
<path d="M6.49993 3.49392L3.48801 0.298027C3.07851 -0.0922511 2.43231 -0.0744097 2.04467 0.337877L1.37155 1.05381L1.21213 1.23198C-0.0252713 2.68545 -0.349377 4.80072 0.397867 6.66669C1.49814 9.41425 2.84206 11.6309 4.42964 13.3166C6.01722 15.0023 8.1042 16.4286 10.6906 17.5955C12.5203 18.4211 14.6035 18.011 15.9715 16.5561L16.7205 15.7594C17.0934 15.3628 17.0931 14.7418 16.7199 14.3455L13.708 11.1496C13.2985 10.7593 12.6523 10.7772 12.2646 11.1895L10.8845 12.6573L10.5944 12.5447C8.00325 11.4874 5.95876 9.2514 5.04455 6.45643L6.50052 4.90787C6.87344 4.51123 6.87318 3.89023 6.49993 3.49392Z" fill="#e0e0e0"/>
</svg>
